<svg xmlns="http://www.w3.org/2000/svg" viewBox="0 0 334.61 334.61"><g id="Layer_2" data-name="Layer 2"><g id="Layer_1-2" data-name="Layer 1"><path d="M0,212.14,44.83,44.83,212.13,0,334.61,122.48,297,263,265.1,231.17l26-97L200.47,43.5,76.67,76.68,43.5,200.48l90.62,90.63c22.36-6,73.93-19.81,94.25-25.25l2.79-.75L263,297,122.47,334.61Z"/><path d="M108,238.08l71.75-24.41-58.79-58.79L96.52,226.64,64.69,194.8,92.19,92.18l102.6-27.49,31.85,31.85s-54.53,19.78-71.77,24.4l58.8,58.79c4.62-17.24,24.39-71.77,24.39-71.77l31.86,31.86-27.49,102.6L139.8,269.92Z"/></g></g></svg>