<svg xmlns="http://www.w3.org/2000/svg" viewBox="0 0 1147.76 431.28"><defs><style>.cls-1{font-size:81px;font-family:Metropolis-ExtraBold, Metropolis;font-weight:800;letter-spacing:-0.01em;}.cls-2{letter-spacing:-0.05em;}.cls-3{letter-spacing:-0.01em;}.cls-4{letter-spacing:-0.01em;}.cls-5{letter-spacing:-0.04em;}.cls-6{letter-spacing:0em;}.cls-7{letter-spacing:0em;}.cls-8{letter-spacing:0em;}.cls-9{letter-spacing:-0.02em;}.cls-10{letter-spacing:-0.02em;}.cls-11{letter-spacing:-0.01em;}.cls-12{letter-spacing:-0.04em;}.cls-13{letter-spacing:-0.01em;}.cls-14{letter-spacing:-0.02em;}.cls-15{letter-spacing:-0.03em;}.cls-16{letter-spacing:0.01em;}.cls-17{letter-spacing:-0.01em;}.cls-18{letter-spacing:0em;}.cls-19{font-size:53px;font-family:Metropolis-Light, Metropolis;font-weight:300;letter-spacing:0.19em;}.cls-20{letter-spacing:0.19em;}.cls-21{letter-spacing:0.19em;}.cls-22{letter-spacing:0.19em;}.cls-23{letter-spacing:0.2em;}.cls-24{letter-spacing:0.18em;}.cls-25{letter-spacing:0.21em;}.cls-26{letter-spacing:0.17em;}.cls-27{letter-spacing:0.17em;}.cls-28{letter-spacing:0.15em;}.cls-29{letter-spacing:0.2em;}.cls-30{letter-spacing:0.19em;}.cls-31{letter-spacing:0.16em;}.cls-32{letter-spacing:0.17em;}</style></defs><g id="Layer_2" data-name="Layer 2"><g id="Layer_1-2" data-name="Layer 1"><path d="M0,269.2,53.56,53.55,269.19,0,431.27,162.09l-45,181.13-42.14-42.14L375.2,176,255.27,56.07,95.7,95.71,56.06,255.28,176,375.21c28.81-7.14,95.28-23.66,121.47-30.17l3.6-.89,42.14,42.14-181.13,45Z"/><path d="M140.65,305.77,233,276.08l-77.8-77.8-29.69,92.34L83.37,248.49l32.86-132.27L248.48,83.38l42.15,42.15s-70.14,24.15-92.36,29.67L276.07,233c5.52-22.22,29.67-92.36,29.67-92.36L347.9,182.8,315.05,315,182.78,347.9Z"/><text class="cls-1" transform="translate(465.07 206.81)">C<tspan class="cls-2" x="55.9" y="0">R</tspan><tspan class="cls-3" x="107.61" y="0">Y</tspan><tspan class="cls-4" x="163.54" y="0">P</tspan><tspan class="cls-5" x="216.79" y="0">T</tspan><tspan class="cls-6" x="265.66" y="0">O</tspan><tspan class="cls-7"><tspan x="0" y="62">H</tspan><tspan class="cls-8" x="61.05" y="62">E</tspan><tspan class="cls-9" x="113.15" y="62">A</tspan><tspan class="cls-10" x="172.55" y="62">D</tspan><tspan class="cls-11" x="232.59" y="62">Q</tspan><tspan class="cls-12" x="297.97" y="62">U</tspan><tspan class="cls-13" x="355.86" y="62">A</tspan><tspan class="cls-14" x="415.4" y="62">R</tspan><tspan class="cls-15" x="469.47" y="62">T</tspan><tspan class="cls-16" x="519.33" y="62">E</tspan><tspan class="cls-17" x="572.45" y="62">R</tspan><tspan class="cls-18" x="627.16" y="62">S</tspan></tspan></text><text class="cls-19" transform="translate(464.15 324.96)">M<tspan class="cls-20" x="54.76" y="0">i</tspan><tspan class="cls-21" x="76.13" y="0">n</tspan><tspan class="cls-20" x="116.91" y="0">i</tspan><tspan class="cls-22" x="138.29" y="0">n</tspan><tspan class="cls-23" x="178.97" y="0">g </tspan><tspan class="cls-24" x="248.56" y="0">C</tspan><tspan class="cls-25" x="294.13" y="0">r</tspan><tspan class="cls-26" x="324.82" y="0">y</tspan><tspan class="cls-27" x="364.68" y="0">p</tspan><tspan class="cls-28" x="406.83" y="0">t</tspan><tspan class="cls-29" x="434.23" y="0">o </tspan><tspan class="cls-30" x="504.25" y="0">N</tspan><tspan class="cls-31" x="554.42" y="0">e</tspan><tspan class="cls-32" x="594.66" y="0">w</tspan><tspan class="cls-23" x="646.88" y="0">s</tspan></text></g></g></svg>