<svg xmlns="http://www.w3.org/2000/svg" viewBox="0 0 683.69 548.87"><defs><style>.cls-1{font-size:81px;font-family:Metropolis-ExtraBold, Metropolis;font-weight:800;letter-spacing:-0.01em;}.cls-2{letter-spacing:-0.05em;}.cls-3{letter-spacing:-0.01em;}.cls-4{letter-spacing:-0.01em;}.cls-5{letter-spacing:-0.04em;}.cls-6{letter-spacing:0em;}.cls-7{letter-spacing:0em;}.cls-8{letter-spacing:0em;}.cls-9{letter-spacing:-0.02em;}.cls-10{letter-spacing:-0.02em;}.cls-11{letter-spacing:-0.01em;}.cls-12{letter-spacing:-0.04em;}.cls-13{letter-spacing:-0.01em;}.cls-14{letter-spacing:-0.02em;}.cls-15{letter-spacing:-0.03em;}.cls-16{letter-spacing:0.01em;}.cls-17{letter-spacing:-0.01em;}.cls-18{letter-spacing:0em;}.cls-19{font-size:53px;font-family:Metropolis-Light, Metropolis;font-weight:300;letter-spacing:0.19em;}.cls-20{letter-spacing:0.19em;}.cls-21{letter-spacing:0.19em;}.cls-22{letter-spacing:0.19em;}.cls-23{letter-spacing:0.2em;}.cls-24{letter-spacing:0.18em;}.cls-25{letter-spacing:0.21em;}.cls-26{letter-spacing:0.17em;}.cls-27{letter-spacing:0.17em;}.cls-28{letter-spacing:0.15em;}.cls-29{letter-spacing:0.2em;}.cls-30{letter-spacing:0.19em;}.cls-31{letter-spacing:0.16em;}.cls-32{letter-spacing:0.17em;}</style></defs><g id="Layer_2" data-name="Layer 2"><g id="Layer_1-2" data-name="Layer 1"><path d="M172.16,212.14,217,44.83,384.28,0,506.76,122.48,469.11,263l-31.85-31.84,26-97L372.63,43.5,248.83,76.68l-33.18,123.8,90.63,90.63,94.25-25.25,2.79-.75L435.16,297,294.63,334.61Z"/><path d="M280.12,238.08l71.76-24.41-58.79-58.79-24.41,71.76L236.84,194.8,264.35,92.18,367,64.69,398.8,96.54s-54.53,19.78-71.77,24.4l58.79,58.79c4.62-17.24,24.4-71.77,24.4-71.77l31.86,31.86-27.5,102.6L312,269.92Z"/><text class="cls-1" transform="translate(173.7 427.94)">C<tspan class="cls-2" x="55.9" y="0">R</tspan><tspan class="cls-3" x="107.61" y="0">Y</tspan><tspan class="cls-4" x="163.54" y="0">P</tspan><tspan class="cls-5" x="216.79" y="0">T</tspan><tspan class="cls-6" x="265.66" y="0">O</tspan><tspan class="cls-7"><tspan x="-173.7" y="62">H</tspan><tspan class="cls-8" x="-112.66" y="62">E</tspan><tspan class="cls-9" x="-60.56" y="62">A</tspan><tspan class="cls-10" x="-1.15" y="62">D</tspan><tspan class="cls-11" x="58.89" y="62">Q</tspan><tspan class="cls-12" x="124.27" y="62">U</tspan><tspan class="cls-13" x="182.16" y="62">A</tspan><tspan class="cls-14" x="241.69" y="62">R</tspan><tspan class="cls-15" x="295.77" y="62">T</tspan><tspan class="cls-16" x="345.62" y="62">E</tspan><tspan class="cls-17" x="398.74" y="62">R</tspan><tspan class="cls-18" x="453.46" y="62">S</tspan></tspan></text><text class="cls-19" transform="translate(0.07 534.4)">M<tspan class="cls-20" x="54.76" y="0">i</tspan><tspan class="cls-21" x="76.13" y="0">n</tspan><tspan class="cls-20" x="116.91" y="0">i</tspan><tspan class="cls-22" x="138.29" y="0">n</tspan><tspan class="cls-23" x="178.97" y="0">g </tspan><tspan class="cls-24" x="248.56" y="0">C</tspan><tspan class="cls-25" x="294.13" y="0">r</tspan><tspan class="cls-26" x="324.82" y="0">y</tspan><tspan class="cls-27" x="364.68" y="0">p</tspan><tspan class="cls-28" x="406.83" y="0">t</tspan><tspan class="cls-29" x="434.23" y="0">o </tspan><tspan class="cls-30" x="504.25" y="0">N</tspan><tspan class="cls-31" x="554.42" y="0">e</tspan><tspan class="cls-32" x="594.66" y="0">w</tspan><tspan class="cls-23" x="646.88" y="0">s</tspan></text></g></g></svg>